# xmcd
#
# Track frame offsets:
#	150
#	19882
#	35001
#	49736
#	64450
#	76894
#	89188
#	102790
#	114149
#	126705
#	141223
#	152743
#	168868
#	185095
#	202330
#	213893
#	227147
#	249077
#
# Disc length: 3475 seconds
#
# Revision: 1
# Processed by: cddbd v1.5.2PL0 Copyright (c) Steve Scherf et al.
# Submitted via: audiograbber 1.83.01
#
DISCID=050d9112
DTITLE=Diversen - Country Hits vol 3
DYEAR=1900
DGENRE=Country
TTITLE0=Sunset - Dance the night away
TTITLE1=Bulletproof - I feel lucky
TTITLE2=Windfall - California
TTITLE3=Dixie Acess - You're gonna love me someday
TTITLE4=Mark Lavender - If you knew about me
TTITLE5=Midnight Flyer - What part of no
TTITLE6=Double You - Bad Moon rising
TTITLE7=Rocking Jojo and His Red Angels - Twist the dial
TTITLE8=Midnight Flyer - Waltz of roses ans wine
TTITLE9=Coincidence - Can you help me out of this dream
TTITLE10=Windfall - Riding shotgun
TTITLE11=Sunset - Cannibals
TTITLE12=Double You - Like we never had a broken heart
TTITLE13=Mark Lavender - Lonely
TTITLE14=Dixie Acess - The jukebox rook teardrops
TTITLE15=Bulletproof - Don't rock the jukebox
TTITLE16=Coincidence - Fall apart with you
TTITLE17=Roking Jojo and his Red Angels - Mean woman blues
EXTD=
EXTT0=
EXTT1=
EXTT2=
EXTT3=
EXTT4=
EXTT5=
EXTT6=
EXTT7=
EXTT8=
EXTT9=
EXTT10=
EXTT11=
EXTT12=
EXTT13=
EXTT14=
EXTT15=
EXTT16=
EXTT17=
PLAYORDER=
